# xmcd
#
# Track frame offsets:
#	150
#	8352
#	20632
#	32901
#	43640
#	55940
#	64962
#	75405
#	86065
#	95343
#	104506
#	120925
#	132708
#	142631
#	151756
#	161031
#	172865
#	184187
#	193788
#	206027
#	218166
#	230707
#
# Disc length: 3233 seconds
#
# Revision: 1
# Processed by: cddbd v1.5.2PL0 Copyright (c) Steve Scherf et al.
# Submitted via: audiograbber 1.81.03
#
DISCID=260c9f16
DTITLE=The Rich Records Story - Music City, Motor City and The Big Easy
DYEAR=2007
DGENRE=Blues
TTITLE0=Bobby Hebb - Night Train To Memphis
TTITLE1=Bobby Hebb - You Gotta Go
TTITLE2=Bobby Hebb - I Found Somebody
TTITLE3=Bobby Hebb - Atlanta, GA
TTITLE4=Bobby Hebb - Cherry
TTITLE5=Bobby Hebb - I Feel So Good
TTITLE6=Lattimore Brown - What Have I Done Wrong
TTITLE7=Lattimore Brown - Mistaken Prayer
TTITLE8=Lattimore Brown - Hully Gully Twist
TTITLE9=Lattimore Brown - Just A Little Bit
TTITLE10=Lattimore Brown - Night Time Is The Right Time
TTITLE11=Lattimore Brown - Only I Can Tell The Story
TTITLE12=Jimmy Church - You Can Make Me Do It
TTITLE13=Jimmy Church - Faith In You
TTITLE14=Jimmy Church and Rodge Martin - Soul Shack
TTITLE15=Dee Brown and Lola Grant - We Belong Together
TTITLE16=Johnette - Living The Blues
TTITLE17=John R - Mojo Blues
TTITLE18=John R - Keep On Scratchin'
TTITLE19=John R - Keep Your Baby Home
TTITLE20=Cornell Blakely - I Got That Feeling
TTITLE21=J.J. Barnes - Won't You Let Me Know
EXTD=
EXTT0=
EXTT1=
EXTT2=
EXTT3=
EXTT4=
EXTT5=
EXTT6=
EXTT7=
EXTT8=
EXTT9=
EXTT10=
EXTT11=
EXTT12=
EXTT13=
EXTT14=
EXTT15=
EXTT16=
EXTT17=
EXTT18=
EXTT19=
EXTT20=
EXTT21=
PLAYORDER=
